<svg xmlns="http://www.w3.org/2000/svg" width="42.439" height="68.386" version="1.1"><g id="id0:id0"><g><g stroke-width="1.001"><path fill="none" stroke="#000" stroke-width="1.059" d="m48.993845 106.80432h8.71116" transform="matrix(3.54330708661,0,0,3.54329386811,0.0,0.0) translate(-32.159731 -142.50055) matrix(1 0 0 1.0314709 -16.834114 38.08141)"/><path fill="none" stroke="#000" stroke-linejoin="round" stroke-width="1.059" d="m51.147265 107.19453.04276 5.13109c.0703 7.22617 9.653828-3.38517 2.551398-2.65579-.32113.015-.610021.10064-.750006.35804.112645.52739.43572.61069.786859.61772l-.03685-.97576" transform="matrix(3.54330708661,0,0,3.54329386811,0.0,0.0) translate(-32.159731 -142.50055) matrix(1 0 0 1.0314709 -16.834114 38.08141)"/></g><path fill="none" stroke="#000" stroke-linejoin="round" stroke-width="1.058" d="m39.209022 148.15802c.517724-4.47187-6.361328.35885-5.672003-4.69636" transform="matrix(3.54330708661,0,0,3.54329386811,0.0,0.0) translate(-32.159731 -142.50055)"/></g></g><g id="id1:id1" transform="matrix(3.54330738861,0,0,2.90358120033,0.866313897638,0.0)"><g id="id1:layer1" transform="translate(-106.93974,-102.57247)"><g id="id1:g4486"><g id="id1:layer1-5" transform="translate(44.481604,-85.982522)"><g id="id1:g4519"><g id="id1:g4512"><g id="id1:g4500" stroke-dasharray="none" stroke-miterlimit="4" stroke-width="1.058"><path id="id1:path4525" fill="none" stroke="#000" stroke-dasharray="none" stroke-linecap="butt" stroke-linejoin="miter" stroke-miterlimit="4" stroke-opacity="1" stroke-width="1.058" d="m 69.964717,198.72428 h 4.2262"/><g id="id1:g4530" stroke-dasharray="none" stroke-miterlimit="4" stroke-width="1.058"><path id="id1:path4527" fill="none" stroke="#000" stroke-dasharray="none" stroke-linecap="butt" stroke-linejoin="round" stroke-miterlimit="4" stroke-opacity="1" stroke-width="1.058" d="m 68.147926,198.31278 c 0.134467,-2.79396 -5.608757,-0.33845 -5.134287,-2.89316 0.659529,-1.99444 9.388019,-1.57819 9.102022,3.01904 l -0.0167,8.96758"/></g></g></g></g></g></g></g></g></svg>