<svg xmlns="http://www.w3.org/2000/svg" width="41.037" height="19.3mm" viewBox="0 0 10.858 19.3"><g><g stroke-width="1.058"><path fill="none" stroke="#000" stroke-width="1.058" d="m72.421688 98.585783h10.857825" transform="translate(-72.421688 -92.44704) matrix(1 0 0 1.0470049 0 -5.0187181)"/><path fill="none" stroke="#000" stroke-linejoin="bevel" stroke-width="1.058" d="m77.154388 98.940473.02363 2.952937c.261316 2.84201 3.656904.48997 3.911717-1.0416 2.725415 4.64088-2.108225 7.50565-5.106729 4.29473-1.385105-1.48323-1.781992-3.33712-2.39695-5.07381" transform="translate(-72.421688 -92.44704) matrix(1 0 0 1.0470049 0 -5.0187181)"/></g><path stroke-linejoin="round" stroke-width="1.411" d="m77.690188 108.4731a.9921875 1.0394346 0 0 1 -.992187 1.03943.9921875 1.0394346 0 0 1 -.992188-1.03943.9921875 1.0394346 0 0 1 .992188-1.03944.9921875 1.0394346 0 0 1 .992187 1.03944z" transform="translate(-72.421688 -92.44704)"/></g></svg>