<svg xmlns="http://www.w3.org/2000/svg" width="32.924" height="19.3mm" viewBox="0 0 8.711 19.3"><g><g stroke-width="1.058"><path fill="none" stroke="#000" stroke-width="1.058" d="m48.993845 106.80432h8.71116" transform="translate(-48.993845 -100.79565) matrix(1 0 0 1.0315995 0 -3.6377445)"/><path fill="none" stroke="#000" stroke-linejoin="round" stroke-width="1.058" d="m51.147265 107.19453.04276 5.13109c.0703 7.22617 9.653828-3.38517 2.551398-2.65579-.199824.0192-.399649.0375-.599473.14796-.1714.16452-.08153.65324.330328.6782.248689.00057.115553-.34536.04137-.68411" transform="translate(-48.993845 -100.79565) matrix(1 0 0 1.0315995 0 -3.6377445)"/></g><path stroke-linejoin="round" stroke-width="1.462" d="m54.928063 117.17246a.85943859.87697808 0 0 1 -.859438.87698.85943859.87697808 0 0 1 -.859439-.87698.85943859.87697808 0 0 1 .859439-.87698.85943859.87697808 0 0 1 .859438.87698z" transform="translate(-48.993845 -100.79565)"/></g></svg>