<svg xmlns="http://www.w3.org/2000/svg" width="36.225" height="19.3mm" viewBox="0 0 9.585 19.3"><g><g stroke-width="1.058"><path fill="none" stroke="#000" stroke-width="1.058" d="m83.001804 138.59269h9.584645" transform="translate(-83.001804 -132.88795) matrix(1 0 0 .99740678 0 .38245711)"/><path fill="none" stroke="#000" stroke-linejoin="bevel" stroke-width="1.058" d="m84.156492 139.31098 3.658252 1.80407c-1.144401.82467-2.751055 1.62486-3.491209 2.22168 3.263159.75139 6.217512 3.22619 6.214016 4.14267l.140535-8.66214" transform="translate(-83.001804 -132.88795) matrix(1 0 0 .99740678 0 .38245711)"/></g><path stroke-linejoin="bevel" stroke-width="1.096" d="m87.113765 147.01766a.8622582.8504464 0 0 1 -.862258.85044.8622582.8504464 0 0 1 -.862258-.85044.8622582.8504464 0 0 1 .862258-.85045.8622582.8504464 0 0 1 .862258.85045z" transform="translate(-83.001804 -132.88795)"/></g></svg>