<svg xmlns="http://www.w3.org/2000/svg" width="34.345" height="19.3mm" viewBox="0 0 9.087 19.306"><g><g><path fill="none" stroke="#000" stroke-width="1.058" d="m71.728459 102.19392h9.087162" transform="translate(-71.728459 -96.285079) matrix(1 0 0 1.0195403 0 -2.1662339)"/><path fill="none" stroke="#000" stroke-linejoin="bevel" stroke-width="1.058" d="m78.527126 103.39664c-1.926519.9583-3.952282 1.66754-5.637469 2.84547 1.855294.55604 5.684729 2.6666 5.90474 4.58796v-8.43569" transform="translate(-71.728459 -96.285079) matrix(1 0 0 1.0195403 0 -2.1662339)"/></g><path stroke-linejoin="bevel" stroke-width="1.058" d="m75.445177 109.81265a.89417374.86862594 0 0 1 -.89417.86862.89417374.86862594 0 0 1 -.89418-.86862.89417374.86862594 0 0 1 .89418-.86863.89417374.86862594 0 0 1 .89417.86863z" transform="translate(-71.728459 -96.285079)"/></g></svg>