<svg xmlns="http://www.w3.org/2000/svg" height="19.3mm" viewBox="0 0 9.087162 19.305786" width="9.087162mm"><g transform="translate(-71.728459 -96.285079)"><text stroke-width=".26458332" x="47.625" y="120.86309"><tspan stroke-width=".26458332" x="47.625" y="127.0147"/></text><text opacity=".61499999" stroke-width="1.41100001" x="55.860569" y="119.53068"><tspan stroke-width="1.41100001" x="55.860569" y="125.68229"/></text><text stroke-width=".26458332" x="64.428658" y="114.17094"><tspan stroke-width=".26458332" x="64.428658" y="120.32255"/></text><text stroke-width=".26458332" x="8.0180855" y="118.39714"><tspan stroke-width=".26458332" x="8.0180855" y="124.54875"/></text><g transform="matrix(1 0 0 1.0195403 0 -2.1662339)"><path d="m71.728459 102.19392h9.087162" fill="none" stroke="#000" stroke-width="1.05833328"/><path d="m78.527126 103.39664c-1.926519.9583-3.952282 1.66754-5.637469 2.84547 1.855294.55604 5.684729 2.6666 5.90474 4.58796v-8.43569" fill="none" stroke="#000" stroke-linejoin="bevel" stroke-width="1.05833328"/></g><g stroke-width=".26458332"><text x="61.562889" y="76.685936"><tspan stroke-width=".26458332" x="61.562889" y="82.837547"/></text><text x="45.177811" y="111.86102"><tspan stroke-width=".26458332" x="45.177811" y="118.01263"/></text><text x="61.981476" y="105.16886"><tspan stroke-width=".26458332" x="61.981476" y="111.32047"/></text><text x="5.5709" y="109.39506"><tspan stroke-width=".26458332" x="5.5709" y="115.54667"/></text><text x="72.455093" y="107.79145"><tspan stroke-width=".26458332" x="72.455093" y="113.94306"/></text><text x="77.600037" y="113.33729"><tspan stroke-width=".26458332" x="77.600037" y="119.4889"/></text></g><path d="m75.445177 109.81265a.89417374.86862594 0 0 1 -.89417.86862.89417374.86862594 0 0 1 -.89418-.86862.89417374.86862594 0 0 1  .89418-.86863.89417374.86862594 0 0 1  .89417.86863z" stroke-linejoin="bevel" stroke-width="1.05833328"/></g></svg>