<svg xmlns="http://www.w3.org/2000/svg" width="39.922" height="19.3mm" viewBox="0 0 10.563 19.3"><g><path fill="none" stroke="#000" stroke-linejoin="bevel" stroke-width="1.058" d="m46.066544 112.29408c.781545-.21297 3.099898.3799 3.471959.83232.737017.67588.883866 1.81481.330727 2.49227-.61282.72842-1.486229.98014-2.055246.4016-.475943-.56389-.312826-1.80122-.04725-2.12611 1.077051-1.53615 3.567526-.53359 4.516737.0147.880019.72553.760568 1.45424.35855 1.91614-.548761.47769-1.241008.68072-1.870801.0698-.83533-1.01693-.195793-1.68809-.299595-2.65025.471284-.46436 1.071624-.87101 1.984375-.5079.972926.3185 1.480594 1.10225 2.173362 1.7009l.06682 6.19075-.06682-9.79653" transform="matrix(.9997333 0 0 1.040626 -45.91517113 -110.9352385)"/><path fill="none" stroke="#000" stroke-width="1.058" d="m54.641174 112.13049h1.85185" transform="matrix(.9997333 0 0 1.040626 -45.91517113 -110.9352385)"/></g></svg>