<svg xmlns="http://www.w3.org/2000/svg" xmlns:svg="http://www.w3.org/2000/svg" id="svg8" width="20.462" height="19.3mm" version="1.1" viewBox="0 0 5.414 9.465"><metadata id="metadata5"/><g id="layer1" transform="translate(-24.550888,-137.15708)"><path id="path4489" fill="none" stroke="#000" stroke-dasharray="none" stroke-linecap="butt" stroke-linejoin="round" stroke-miterlimit="4" stroke-opacity="1" stroke-width="1.058" d="m 25.632817,137.42339 c -0.373165,0.64075 -0.5554,1.20457 -0.306778,1.73856 0.607744,1.15642 2.803874,1.94432 3.798827,3.62639 0.403575,0.77911 0.541097,1.79604 -0.3842,2.59753 -1.265598,0.97957 -2.819357,0.93191 -3.401853,-0.0808 -0.395593,-0.73322 -0.31175,-1.20135 0.07685,-1.61758 0.369885,-0.35491 0.814285,-0.38917 1.102486,-0.1754 0.46497,0.24663 0.179908,1.08702 -0.514374,0.94379 -0.190112,-0.0536 -0.367399,-0.18422 -0.550527,-0.27976 0.345464,-0.31715 1.135757,-0.32191 1.104002,0.0377"/></g></svg>