<svg xmlns="http://www.w3.org/2000/svg" height="19.3mm" viewBox="0 0 17.471613 19.300473" width="17.471613mm"><g transform="matrix(1 0 0 1.0164195 -61.270455 -173.2915461)"><g transform="translate(50.412631 91.86209)"><text stroke-width=".26458332" x="11.893495" y="95.979904"><tspan stroke-width=".26458332" x="11.893495" y="102.13152"/></text><g fill="none" stroke="#000" stroke-width="1.05833328"><path d="m10.857824 84.320273h13.597337"/><path d="m15.595144 88.992282c.512873-.498104.111513-1.065958.979793-.981015 1.12064.424856-.746928 2.157583-1.340052.892427-.592459-1.383049-.111078-1.956034.567426-2.445265 3.255463-2.050362 6.246502 5.042832.114067 4.732572-2.540908-.520626-3.116197-3.245817-3.989473-4.866205" stroke-linejoin="round"/><path d="m19.477266 89.732481c.82206.531488 2.942068 2.369172 2.906556 3.240643v-8.652851" stroke-linejoin="bevel"/></g></g><path d="m74.18273 176.18455c1.613361-.1221 1.855536.53782 2.370704 1.21054l-.0084 7.41205.0059-9.97656" fill="none" stroke="#000" stroke-width="1.05833328"/><path d="m76.828564 176.13731h1.913504" fill="none" stroke="#000" stroke-width="1.05833328"/></g></svg>