<svg xmlns="http://www.w3.org/2000/svg" height="19.3mm" viewBox="0 0 10.451208 19.283113" width="10.451208mm"><g transform="matrix(1.0057214 0 0 .89662068 -114.38635256 -116.109889)"><text stroke-width=".26458332" x="99.691528" y="150.00175"><tspan stroke-width=".26458332" x="99.691528" y="156.15337"/></text><g fill="none" stroke="#000" stroke-linejoin="bevel" stroke-width="1.05833328"><path d="m120.24368 139.02957c-1.71021.74935-3.85148 1.60662-5.12629 2.4096 1.14013.75113 4.9638 2.01926 5.36253 4.2286l.0473-10.14629"/><path d="m120.47991 141.01395c.64654.53191 2.74915 1.95887 3.1183 3.59364v-9.04781"/><path d="m119.77016 139.09382c-.53766-.72622-1.03471-1.76694-1.63703-2.18827-2.566 3.63288-4.60806 1.18356-3.60814-.36749l.63963-.69766c.60079-.17557 1.15693 1.13456.28348 1.06306l-.92311-.3654"/></g></g></svg>