<svg xmlns="http://www.w3.org/2000/svg" height="19.3mm" viewBox="0 0 9.520277 19.300211" width="9.520277mm"><g transform="translate(-86.438428 -120.60228)"><text opacity=".48399999" stroke-width=".26458332" x="86.595329" y="135.83647"><tspan stroke-width=".26458332" x="86.595329" y="141.98808"/></text><g transform="matrix(1 0 0 1.0007461 0 -.10086529)"><path d="m86.438428 126.36306h9.520277" fill="none" stroke="#000" stroke-width="1.10757077"/><path d="m87.17998 127.24802c1.188582.13673 2.449386.66507 2.92326 1.24405 1.053143 1.22344 1.510098 2.6469 1.419867 3.8968-.118797.98299-.960401 1.51175-1.61948 1.67202-1.348769.23019-1.778468-.96811-1.802044-1.67869-.06469-.59059.122981-1.64842 1.102486-2.04902 1.028148-.34511 2.160592.0368 2.970508.88481l1.960979 1.92236.03544 2.05257v-8.70978" fill="none" stroke="#000" stroke-linejoin="bevel" stroke-width="1.1071775"/></g></g></svg>